<svg width="24" height="24" viewBox="0 0 24 24" fill="none" xmlns="http://www.w3.org/2000/svg">
<path d="M7.5 6.00018V12.5556C7.5 12.9391 7.61026 13.3146 7.81764 13.6372L11.3451 19.1243C11.6818 19.648 12.4161 19.7269 12.8564 19.2866C13.5886 18.5544 14 17.5613 14 16.5257V15.143C14 14.0385 14.8954 13.143 16 13.143H19.7576C20.396 13.143 20.8709 12.553 20.7345 11.9293L19.344 5.57279C19.1432 4.65462 18.3301 4.00018 17.3902 4.00018H9.5C8.39543 4.00018 7.5 4.89561 7.5 6.00018Z" fill="#E04848"/>
<path d="M4 12.143L4 5.14304M7.5 12.5556V6.00018C7.5 4.89561 8.39543 4.00018 9.5 4.00018H17.3902C18.3301 4.00018 19.1432 4.65462 19.344 5.57279L20.7345 11.9293C20.8709 12.553 20.396 13.143 19.7576 13.143H16C14.8954 13.143 14 14.0385 14 15.143V16.5257C14 17.5613 13.5886 18.5544 12.8564 19.2866C12.4161 19.7269 11.6818 19.648 11.3451 19.1243L7.81764 13.6372C7.61026 13.3146 7.5 12.9391 7.5 12.5556Z" stroke="#E04848" stroke-width="1.5" stroke-linecap="round"/>
</svg>
