<svg width="24" height="24" viewBox="0 0 24 24" fill="none" xmlns="http://www.w3.org/2000/svg">
<path d="M7.5 17.5725V11.0171C7.5 10.6336 7.61026 10.2582 7.81764 9.93557L11.3451 4.44846C11.6818 3.92471 12.4161 3.84581 12.8564 4.28608C13.5886 5.01832 14 6.01144 14 7.04698V8.42968C14 9.53425 14.8954 10.4297 16 10.4297H19.7576C20.396 10.4297 20.8709 11.0197 20.7345 11.6434L19.344 17.9999C19.1432 18.9181 18.3301 19.5725 17.3902 19.5725H9.5C8.39543 19.5725 7.5 18.6771 7.5 17.5725Z" fill="#5AE048"/>
<path d="M4 11.4297L4 18.4297M7.5 11.0171V17.5725C7.5 18.6771 8.39543 19.5725 9.5 19.5725H17.3902C18.3301 19.5725 19.1432 18.9181 19.344 17.9999L20.7345 11.6434C20.8709 11.0197 20.396 10.4297 19.7576 10.4297H16C14.8954 10.4297 14 9.53425 14 8.42968V7.04698C14 6.01144 13.5886 5.01832 12.8564 4.28608C12.4161 3.84581 11.6818 3.92471 11.3451 4.44846L7.81764 9.93557C7.61026 10.2582 7.5 10.6336 7.5 11.0171Z" stroke="#5AE048" stroke-width="1.5" stroke-linecap="round"/>
</svg>
