<svg width="40" height="40" viewBox="0 0 40 40" fill="none" xmlns="http://www.w3.org/2000/svg">
<path d="M29.1884 17.7235C29.2851 18.0138 29.2852 18.4008 29.2852 18.691C29.2852 20.5293 28.6079 22.4643 27.1566 23.8188L18.3523 32.6232" stroke="#E09148" stroke-width="1.5" stroke-miterlimit="10" stroke-linecap="round" stroke-linejoin="round"/>
<path d="M8 22.2708L16.8044 13.4665C18.4491 11.8217 20.7711 11.1444 22.8997 11.4347" stroke="#E09148" stroke-width="1.5" stroke-miterlimit="10" stroke-linecap="round" stroke-linejoin="round"/>
<path d="M31.5106 15.3047L25.899 20.9163C25.4153 21.4 24.8348 21.6903 24.1575 21.787C23.0933 21.9805 22.029 21.6903 21.255 20.9163L19.6102 19.2715C18.8362 18.4975 18.5459 17.4332 18.7394 16.369C18.8362 15.6917 19.1264 15.1112 19.6102 14.6275L25.2218 9.01589C26.5763 7.66137 28.8983 7.66137 30.2528 9.01589L31.4138 10.1769C32.9619 11.6282 32.9619 13.9502 31.5106 15.3047Z" stroke="#E09148" stroke-width="1.5" stroke-miterlimit="10" stroke-linecap="round" stroke-linejoin="round"/>
<path d="M24.1575 21.8838C23.0933 22.0773 22.029 21.7871 21.255 21.0131L19.6102 19.3683C18.8362 18.5943 18.5459 17.53 18.7394 16.4658C19.0297 16.369 19.32 16.369 19.707 16.369C22.2225 16.369 24.351 18.4008 24.351 21.0131C24.2542 21.2066 24.2543 21.5936 24.1575 21.8838Z" stroke="#E09148" stroke-width="1.5" stroke-miterlimit="10" stroke-linecap="round" stroke-linejoin="round"/>
</svg>
