<svg width="40" height="40" viewBox="0 0 40 40" fill="none" xmlns="http://www.w3.org/2000/svg">
<path d="M33.0372 10H7C5.34315 10 4 11.3431 4 13V27.5C4 29.1569 5.34315 30.5 7 30.5H33.0372C34.694 30.5 36.0372 29.1569 36.0372 27.5V13C36.0372 11.3431 34.694 10 33.0372 10Z" stroke="#E09148" stroke-width="1.5" stroke-miterlimit="10" stroke-linecap="round" stroke-linejoin="round"/>
<path d="M4 25.9232H36.0372" stroke="#E09148" stroke-width="1.5" stroke-miterlimit="10" stroke-linecap="round" stroke-linejoin="round"/>
<path d="M16.4907 16.6744C15.8233 18.2 14.3931 19.2489 12.5814 19.2489C10.7698 19.2489 9.33956 18.2 8.67212 16.6744" stroke="#E09148" stroke-width="1.5" stroke-miterlimit="10" stroke-linecap="round" stroke-linejoin="round"/>
<path d="M12.5813 19.3441V20.7743" stroke="#E09148" stroke-width="1.5" stroke-miterlimit="10" stroke-linecap="round" stroke-linejoin="round"/>
<path d="M14.1069 19.0581L14.8697 20.5837" stroke="#E09148" stroke-width="1.5" stroke-miterlimit="10" stroke-linecap="round" stroke-linejoin="round"/>
<path d="M11.0558 19.0581L10.293 20.5837" stroke="#E09148" stroke-width="1.5" stroke-miterlimit="10" stroke-linecap="round" stroke-linejoin="round"/>
<path d="M15.9187 17.8186L16.6815 19.3442" stroke="#E09148" stroke-width="1.5" stroke-miterlimit="10" stroke-linecap="round" stroke-linejoin="round"/>
<path d="M9.24425 17.8186L8.48145 19.3442" stroke="#E09148" stroke-width="1.5" stroke-miterlimit="10" stroke-linecap="round" stroke-linejoin="round"/>
<path d="M31.3652 16.6744C30.6978 18.2 29.2675 19.2489 27.4559 19.2489C25.6443 19.2489 24.2141 18.2 23.5466 16.6744" stroke="#E09148" stroke-width="1.5" stroke-miterlimit="10" stroke-linecap="round" stroke-linejoin="round"/>
<path d="M27.4561 19.3441V20.7743" stroke="#E09148" stroke-width="1.5" stroke-miterlimit="10" stroke-linecap="round" stroke-linejoin="round"/>
<path d="M28.9814 19.0581L29.7443 20.5837" stroke="#E09148" stroke-width="1.5" stroke-miterlimit="10" stroke-linecap="round" stroke-linejoin="round"/>
<path d="M25.9304 19.0581L25.2629 20.5837" stroke="#E09148" stroke-width="1.5" stroke-miterlimit="10" stroke-linecap="round" stroke-linejoin="round"/>
<path d="M30.8884 17.8186L31.5559 19.3442" stroke="#E09148" stroke-width="1.5" stroke-miterlimit="10" stroke-linecap="round" stroke-linejoin="round"/>
<path d="M24.1187 17.8186L23.356 19.3442" stroke="#E09148" stroke-width="1.5" stroke-miterlimit="10" stroke-linecap="round" stroke-linejoin="round"/>
</svg>
