<svg width="24" height="24" viewBox="0 0 24 24" fill="none" xmlns="http://www.w3.org/2000/svg">
<g clip-path="url(#clip0_438_394)">
<path d="M1.70711 23.7071C1.31658 24.0976 0.683417 24.0976 0.292893 23.7071C-0.0976318 23.3166 -0.0976318 22.6834 0.292893 22.2929L1.70711 23.7071ZM5.88235 10.0588C5.88235 14.5096 9.49041 18.1176 13.9412 18.1176V20.1176C8.38584 20.1176 3.88235 15.6142 3.88235 10.0588H5.88235ZM13.9412 18.1176C18.3919 18.1176 22 14.5096 22 10.0588H24C24 15.6142 19.4965 20.1176 13.9412 20.1176V18.1176ZM22 10.0588C22 5.60806 18.3919 2 13.9412 2V0C19.4965 0 24 4.50349 24 10.0588H22ZM13.9412 2C9.49041 2 5.88235 5.60806 5.88235 10.0588H3.88235C3.88235 4.50349 8.38584 0 13.9412 0V2ZM8.17769 17.2365L1.70711 23.7071L0.292893 22.2929L6.76348 15.8223L8.17769 17.2365Z" fill="#E09148"/>
</g>
<defs>
<clipPath id="clip0_438_394">
<rect width="24" height="24" fill="white" transform="matrix(-1 0 0 1 24 0)"/>
</clipPath>
</defs>
</svg>
